<svg width="48" height="48" viewBox="0 0 48 48" fill="none" xmlns="http://www.w3.org/2000/svg">
<path d="M24.27 33.6757C26.5388 33.6757 28.378 31.8365 28.378 29.5678C28.378 27.299 26.5388 25.4598 24.27 25.4598C22.0013 25.4598 20.1621 27.299 20.1621 29.5678C20.1621 31.8365 22.0013 33.6757 24.27 33.6757Z" fill="url(#paint0_linear_1553_19290)"/>
<path fill-rule="evenodd" clip-rule="evenodd" d="M24 48C20.8476 48.0023 17.7257 47.3831 14.8128 46.1779C11.9 44.9726 9.25331 43.2048 7.02423 40.9758C4.79516 38.7467 3.02743 36.1 1.82214 33.1872C0.616856 30.2743 -0.00232857 27.1524 6.58038e-06 24C6.58038e-06 17.5892 2.49663 11.5623 7.02921 7.0292C11.5618 2.4961 17.5892 0 24 0C30.4108 0 36.4377 2.49663 40.9708 7.0292C45.5039 11.5618 48 17.5892 48 24C48 30.4108 45.5034 36.4377 40.9708 40.9708C36.4382 45.5039 30.4108 48 24 48ZM24 2.59482C12.1959 2.59482 2.59483 12.1969 2.59483 24C2.59469 26.811 3.14826 29.5945 4.22392 32.1916C4.74943 33.4604 5.39453 34.6725 6.14872 35.8123C6.14832 35.8116 6.14793 35.8109 6.14754 35.8103C6.21086 35.6534 6.27607 35.5044 6.34027 35.367L16.543 13.4102C17.9569 10.3568 21.0087 8.34385 24.3969 8.34385C27.7475 8.34385 30.8385 10.3516 32.2174 13.404L42.1859 35.2801C44.2259 32.0028 45.4052 28.1366 45.4052 24C45.4052 12.1969 35.8031 2.59482 24 2.59482ZM39.0191 39.238C35.1524 43.0497 29.8464 45.4052 24 45.4052C21.189 45.4053 18.4055 44.8517 15.8084 43.7761C13.3289 42.7491 11.0657 41.2654 9.13612 39.4034L20.863 15.3454C21.495 13.9675 22.8723 13.1099 24.399 13.1099C25.8881 13.1099 27.3036 13.9639 27.9371 15.3417L39.0191 39.238ZM7.38967 37.5017C7.38999 37.5017 7.39032 37.5017 7.39064 37.5016C7.38874 37.4997 7.38683 37.4978 7.38491 37.4959C7.3865 37.4978 7.38809 37.4998 7.38967 37.5017Z" fill="url(#paint1_linear_1553_19290)"/>
<defs>
<linearGradient id="paint0_linear_1553_19290" x1="0" y1="0" x2="48" y2="48" gradientUnits="userSpaceOnUse">
<stop stop-color="#00D3F8"/>
<stop offset="0.55" stop-color="#92E5F4"/>
<stop offset="0.89" stop-color="#1BEEA2"/>
</linearGradient>
<linearGradient id="paint1_linear_1553_19290" x1="0" y1="0" x2="48" y2="48" gradientUnits="userSpaceOnUse">
<stop stop-color="#00D3F8"/>
<stop offset="0.55" stop-color="#92E5F4"/>
<stop offset="0.89" stop-color="#1BEEA2"/>
</linearGradient>
</defs>
</svg>
